<svg viewBox="0 0 22 22" fill="none" xmlns="http://www.w3.org/2000/svg">
<path fill-rule="evenodd" clip-rule="evenodd" d="M1.2349e-06 2.42C1.35174e-06 1.08347 0.902894 -2.10186e-06 2.01667 -3.26024e-07L19.9833 2.92314e-06C21.0971 3.02051e-06 22 1.08347 22 2.42L22 19.58C22 20.9165 21.0971 22 19.9833 22L2.01666 22C0.90289 22 -1.78084e-06 20.9165 -1.664e-06 19.58L1.2349e-06 2.42ZM1.19167 2.75C1.19167 1.89948 1.76624 1.21 2.475 1.21L7.60833 1.21L7.60833 20.79L2.475 20.79C1.76623 20.79 1.19166 20.1005 1.19167 19.25L1.19167 2.75ZM8.61667 20.79L19.525 20.79C20.2338 20.79 20.8083 20.1005 20.8083 19.25L20.8083 2.75C20.8083 1.89948 20.2338 1.21 19.525 1.21L8.61667 1.21L8.61667 20.79Z"/>
</svg>
