<svg width="22" height="18" viewBox="0 0 22 18" fill="none" xmlns="http://www.w3.org/2000/svg">
<path fill-rule="evenodd" clip-rule="evenodd" d="M2.71182e-06 1.98C2.80741e-06 0.886473 0.902895 -3.81609e-06 2.01667 -2.34543e-06L19.9833 5.98558e-07C21.0971 6.95927e-07 22 0.886477 22 1.98L22 16.02C22 17.1135 21.0971 18 19.9833 18L2.01667 18C0.902892 18 -9.92174e-09 17.1135 8.56772e-08 16.02L2.71182e-06 1.98ZM1.19167 2.25C1.19167 1.55412 1.76624 0.989996 2.475 0.989998L7.60834 0.989998L7.60833 17.01L2.475 17.01C1.76624 17.01 1.19167 16.4459 1.19167 15.75L1.19167 2.25ZM8.61667 17.01L19.525 17.01C20.2338 17.01 20.8083 16.4459 20.8083 15.75L20.8083 2.25C20.8083 1.55412 20.2338 0.990001 19.525 0.990001L8.61667 0.989998L8.61667 17.01Z"/>
</svg>
