<svg viewBox="0 0 22 22" fill="none" xmlns="http://www.w3.org/2000/svg">
<path fill-rule="evenodd" clip-rule="evenodd" d="M22 19.58C22 20.9165 21.0971 22 19.9833 22L2.01667 22C0.902893 22 1.21658e-06 20.9165 1.09974e-06 19.58L-4.00436e-07 2.42C-5.1728e-07 1.08346 0.902891 -6.29808e-08 2.01667 -1.6035e-07L2.10833 -1.68364e-07L8.61667 -7.3734e-07L19.9833 -1.73105e-06C21.0971 -1.82842e-06 22 1.08345 22 2.42L22 19.58ZM8.61667 20.79L8.61667 1.21L19.525 1.21C20.2338 1.21 20.8083 1.89948 20.8083 2.75L20.8083 19.25C20.8083 20.1005 20.2338 20.79 19.525 20.79L8.61667 20.79Z"/>
</svg>
