<svg width="22" height="18" viewBox="0 0 22 18" fill="none" xmlns="http://www.w3.org/2000/svg">
<path fill-rule="evenodd" clip-rule="evenodd" d="M22 16.02C22 17.1135 21.0971 18 19.9833 18L2.01667 18C0.902892 18 -7.74991e-08 17.1135 -1.73097e-07 16.02L-1.40051e-06 1.98C-1.49611e-06 0.886466 0.90289 1.84437e-06 2.01666 1.747e-06L2.10833 1.73898e-06L8.61667 1.17001e-06L19.9833 1.76303e-07C21.0971 7.89333e-08 22 0.886464 22 1.98L22 16.02ZM8.61667 17.01L8.61667 0.990001L19.525 0.99C20.2338 0.99 20.8083 1.55413 20.8083 2.25L20.8083 15.75C20.8083 16.4459 20.2338 17.01 19.525 17.01L8.61667 17.01Z"/>
</svg>
