<svg width="32" height="32" viewBox="0 0 32 32" fill="none" xmlns="http://www.w3.org/2000/svg">
<path d="M24.2929 0.292893C24.6834 -0.097631 25.3166 -0.097631 25.7071 0.292893L31.7071 6.29289C32.0976 6.68341 32.0976 7.31658 31.7071 7.7071L11.7071 27.7071C11.6114 27.8028 11.4971 27.8782 11.3714 27.9284L1.37142 31.9284C1 32.077 0.575784 31.9899 0.292922 31.7071C0.0100598 31.4242 -0.0770142 31 0.0715524 30.6286L4.07155 20.6286C4.12184 20.5028 4.19716 20.3886 4.29292 20.2929L24.2929 0.292893ZM22.4142 5L27 9.58578L29.5858 6.99999L25 2.41421L22.4142 5ZM25.5858 11L21 6.41421L8.00002 19.4142V20H9.00002C9.55231 20 10 20.4477 10 21V22H11C11.5523 22 12 22.4477 12 23V24H12.5858L25.5858 11ZM6.06333 21.3509L5.85227 21.5619L2.79508 29.2049L10.438 26.1477L10.6491 25.9367C10.2699 25.7946 10 25.4288 10 25V24H9.00002C8.44774 24 8.00002 23.5523 8.00002 23V22H7.00002C6.57121 22 6.20544 21.7301 6.06333 21.3509Z" fill="black"/>
</svg>
