<svg width="32" height="29" viewBox="0 0 32 29" fill="none" xmlns="http://www.w3.org/2000/svg">
<path d="M17.5085 0.615818C16.6754 -0.20527 15.3246 -0.205275 14.4915 0.615818L0.312419 14.5902C-0.10414 15.0007 -0.10414 15.6664 0.312419 16.0769C0.728979 16.4874 1.40435 16.4874 1.82091 16.0769L3.2 14.7177V25.8462C3.2 27.588 4.63269 29 6.4 29H25.6C27.3673 29 28.8 27.588 28.8 25.8462V14.7177L30.1791 16.0769C30.5956 16.4874 31.271 16.4874 31.6876 16.0769C32.1041 15.6664 32.1041 15.0007 31.6876 14.5902L26.6667 9.64176V2.71835C26.6667 2.13775 26.1891 1.66708 25.6 1.66708H23.4667C22.8776 1.66708 22.4 2.13775 22.4 2.71835V5.4367L17.5085 0.615818ZM26.6667 12.6152V25.8462C26.6667 26.4268 26.1891 26.8975 25.6 26.8975H6.4C5.8109 26.8975 5.33333 26.4268 5.33333 25.8462V12.6152L16 2.10253L26.6667 12.6152Z" fill="black"/>
</svg>
