<svg width="22" height="20" viewBox="0 0 22 20" fill="none" xmlns="http://www.w3.org/2000/svg">
<path d="M12.0371 0.424702C11.4643 -0.141566 10.5357 -0.141569 9.96291 0.424702L0.214788 10.0622C-0.0715961 10.3453 -0.0715961 10.8044 0.214788 11.0875C0.501173 11.3707 0.965494 11.3707 1.25188 11.0875L2.2 10.1502V17.825C2.2 19.0262 3.18497 20 4.4 20H17.6C18.815 20 19.8 19.0262 19.8 17.825V10.1502L20.7481 11.0875C21.0345 11.3707 21.4988 11.3707 21.7852 11.0875C22.0716 10.8044 22.0716 10.3453 21.7852 10.0622L18.3333 6.64949V1.87472C18.3333 1.47431 18.005 1.14971 17.6 1.14971H16.1333C15.7283 1.14971 15.4 1.47431 15.4 1.87472V3.74945L12.0371 0.424702ZM18.3333 8.70013V17.825C18.3333 18.2254 18.005 18.55 17.6 18.55H4.4C3.99499 18.55 3.66667 18.2254 3.66667 17.825V8.70013L11 1.45002L18.3333 8.70013Z" fill="#DEDEDE"/>
</svg>
