<svg width="60" height="18" viewBox="0 0 60 18" fill="none" xmlns="http://www.w3.org/2000/svg">
<path d="M23 2H24.7261V12.0288H30.4028V13.2025H23V2Z" fill="url(#paint0_linear_1470_867)"/>
<path d="M35.7863 13.3751C35.0271 13.3751 34.4576 13.3464 34.078 13.2888C33.6984 13.2428 33.3187 13.1335 32.9391 12.9609C32.5476 12.7883 32.2629 12.5121 32.0849 12.1323C31.907 11.7411 31.818 11.2175 31.818 10.5616V7.66168C31.818 7.14384 31.8833 6.6893 32.0138 6.29804C32.1443 5.90679 32.3163 5.60184 32.5298 5.3832C32.7078 5.18757 32.9747 5.03797 33.3306 4.93441C33.6984 4.81933 34.0721 4.74453 34.4517 4.71001C34.8788 4.687 35.3236 4.67549 35.7863 4.67549C36.4032 4.67549 36.8659 4.69275 37.1743 4.72727C37.4946 4.75029 37.8328 4.80783 38.1887 4.89989C38.5564 5.00345 38.8411 5.1588 39.0428 5.36594C39.2445 5.57307 39.4165 5.87227 39.5589 6.26352C39.6894 6.66628 39.7546 7.13234 39.7546 7.66168V10.5616C39.7546 11.5397 39.5233 12.2532 39.0606 12.702C38.8708 12.8861 38.5979 13.0299 38.242 13.1335C37.8861 13.2371 37.5184 13.3061 37.1387 13.3406C36.6879 13.3636 36.2371 13.3751 35.7863 13.3751ZM35.7863 12.3567C36.2846 12.3567 36.6464 12.3452 36.8718 12.3222C37.0972 12.2992 37.3167 12.2359 37.5302 12.1323C37.7438 12.0403 37.8921 11.8907 37.9751 11.6835C38.07 11.4649 38.1175 11.1657 38.1175 10.786V7.40276C38.1175 6.88493 38.0522 6.51093 37.9217 6.28078C37.7912 6.03913 37.5658 5.88377 37.2455 5.81473C36.9371 5.73418 36.4507 5.6939 35.7863 5.6939C35.122 5.6939 34.6296 5.73418 34.3093 5.81473C34.0009 5.88377 33.7814 6.03913 33.6509 6.28078C33.5204 6.51093 33.4552 6.88493 33.4552 7.40276V10.786C33.4552 11.1657 33.4967 11.4649 33.5797 11.6835C33.6746 11.8907 33.8289 12.0403 34.0424 12.1323C34.2559 12.2359 34.4754 12.2992 34.7008 12.3222C34.9262 12.3452 35.2881 12.3567 35.7863 12.3567Z" fill="url(#paint1_linear_1470_867)"/>
<path d="M45.5088 17C44.3344 17 43.3438 16.9367 42.537 16.8101V15.7054C43.9607 15.8665 44.9987 15.9471 45.6512 15.9471C46.4698 15.9471 47.0629 15.8205 47.4307 15.5673C47.8103 15.3142 48.0001 14.8941 48.0001 14.3073V12.3049C47.9764 12.6732 47.7154 12.9436 47.2172 13.1162C46.7308 13.2888 46.1139 13.3751 45.3665 13.3751C44.4767 13.3751 43.7827 13.2946 43.2844 13.1335C42.798 12.9724 42.4481 12.7077 42.2345 12.3395C42.0329 11.9712 41.932 11.4707 41.932 10.8377V7.43728C41.932 6.44764 42.2049 5.73993 42.7506 5.31415C43.3082 4.88838 44.2157 4.67549 45.4732 4.67549C46.968 4.67549 47.8459 5.00345 48.1069 5.65938V4.8481H49.6017V13.9965C49.6017 14.7675 49.4534 15.3717 49.1568 15.809C48.8602 16.2463 48.4154 16.5512 47.8222 16.7238C47.229 16.9079 46.4579 17 45.5088 17ZM45.7046 12.3395C46.5469 12.3395 47.14 12.2417 47.4841 12.046C47.8281 11.8504 48.0001 11.4822 48.0001 10.9413V7.1611C48.0001 6.78136 47.9349 6.49367 47.8044 6.29804C47.6858 6.10242 47.4604 5.96433 47.1282 5.88377C46.796 5.79172 46.3096 5.74568 45.669 5.74568C45.064 5.74568 44.6072 5.78596 44.2988 5.86651C44.0022 5.94707 43.7946 6.09091 43.6759 6.29804C43.5692 6.49367 43.5158 6.78136 43.5158 7.1611V10.9413C43.5158 11.3326 43.5751 11.626 43.6937 11.8216C43.8124 12.0173 44.0259 12.1554 44.3344 12.2359C44.6428 12.3049 45.0995 12.3395 45.7046 12.3395Z" fill="url(#paint2_linear_1470_867)"/>
<path d="M56.0317 13.3751C55.2724 13.3751 54.703 13.3464 54.3234 13.2888C53.9437 13.2428 53.5641 13.1335 53.1845 12.9609C52.793 12.7883 52.5083 12.5121 52.3303 12.1323C52.1524 11.7411 52.0634 11.2175 52.0634 10.5616V7.66168C52.0634 7.14384 52.1286 6.6893 52.2591 6.29804C52.3896 5.90679 52.5617 5.60184 52.7752 5.3832C52.9531 5.18757 53.2201 5.03797 53.576 4.93441C53.9437 4.81933 54.3174 4.74453 54.6971 4.71001C55.1241 4.687 55.569 4.67549 56.0317 4.67549C56.6486 4.67549 57.1113 4.69275 57.4197 4.72727C57.74 4.75029 58.0781 4.80783 58.434 4.89989C58.8018 5.00345 59.0865 5.1588 59.2882 5.36594C59.4899 5.57307 59.6619 5.87227 59.8043 6.26352C59.9348 6.66628 60 7.13234 60 7.66168V10.5616C60 11.5397 59.7687 12.2532 59.306 12.702C59.1162 12.8861 58.8433 13.0299 58.4874 13.1335C58.1315 13.2371 57.7638 13.3061 57.3841 13.3406C56.9333 13.3636 56.4825 13.3751 56.0317 13.3751ZM56.0317 12.3567C56.53 12.3567 56.8918 12.3452 57.1172 12.3222C57.3426 12.2992 57.5621 12.2359 57.7756 12.1323C57.9892 12.0403 58.1375 11.8907 58.2205 11.6835C58.3154 11.4649 58.3629 11.1657 58.3629 10.786V7.40276C58.3629 6.88493 58.2976 6.51093 58.1671 6.28078C58.0366 6.03913 57.8112 5.88377 57.4909 5.81473C57.1824 5.73418 56.696 5.6939 56.0317 5.6939C55.3673 5.6939 54.875 5.73418 54.5547 5.81473C54.2463 5.88377 54.0268 6.03913 53.8963 6.28078C53.7658 6.51093 53.7005 6.88493 53.7005 7.40276V10.786C53.7005 11.1657 53.7421 11.4649 53.8251 11.6835C53.92 11.8907 54.0742 12.0403 54.2878 12.1323C54.5013 12.2359 54.7208 12.2992 54.9462 12.3222C55.1716 12.3452 55.5334 12.3567 56.0317 12.3567Z" fill="url(#paint3_linear_1470_867)"/>
<path d="M2 4.5C2 3.25736 3.04467 2.25 4.33333 2.25H11.3333C12.622 2.25 13.6667 3.25736 13.6667 4.5V17.4375C13.6667 17.6449 13.5482 17.8356 13.3586 17.9334C13.1689 18.0313 12.9387 18.0206 12.7597 17.9055L7.83333 14.7385L2.90691 17.9055C2.72791 18.0206 2.49776 18.0313 2.30808 17.9334C2.11841 17.8356 2 17.6449 2 17.4375V4.5ZM4.33333 3.375C3.689 3.375 3.16667 3.87868 3.16667 4.5V16.3865L7.50975 13.5945C7.70569 13.4685 7.96096 13.4685 8.1569 13.5945L12.5 16.3865V4.5C12.5 3.87868 11.9777 3.375 11.3333 3.375H4.33333Z" fill="url(#paint4_linear_1470_867)"/>
<path d="M4.6455 1.125H13.6667C13.7472 1.125 13.8258 1.13287 13.9018 1.14786C14.4334 1.25276 14.8333 1.70634 14.8333 2.25V15.4885L15.0931 15.6555C15.2721 15.7706 15.5022 15.7813 15.6919 15.6834C15.8816 15.5856 16 15.3949 16 15.1875V2.25C16 1.00736 14.9553 0 13.6667 0H6.66668C5.80302 0 5.04895 0.452474 4.6455 1.125Z" fill="url(#paint5_linear_1470_867)"/>
<defs>
<linearGradient id="paint0_linear_1470_867" x1="34.2954" y1="-2.97986" x2="40.071" y2="20.8371" gradientUnits="userSpaceOnUse">
<stop stop-color="#25A1C8"/>
<stop offset="1" stop-color="#760081"/>
</linearGradient>
<linearGradient id="paint1_linear_1470_867" x1="34.2954" y1="-2.97986" x2="40.071" y2="20.8371" gradientUnits="userSpaceOnUse">
<stop stop-color="#25A1C8"/>
<stop offset="1" stop-color="#760081"/>
</linearGradient>
<linearGradient id="paint2_linear_1470_867" x1="34.2954" y1="-2.97986" x2="40.071" y2="20.8371" gradientUnits="userSpaceOnUse">
<stop stop-color="#25A1C8"/>
<stop offset="1" stop-color="#760081"/>
</linearGradient>
<linearGradient id="paint3_linear_1470_867" x1="34.2954" y1="-2.97986" x2="40.071" y2="20.8371" gradientUnits="userSpaceOnUse">
<stop stop-color="#25A1C8"/>
<stop offset="1" stop-color="#760081"/>
</linearGradient>
<linearGradient id="paint4_linear_1470_867" x1="9" y1="0" x2="9" y2="18" gradientUnits="userSpaceOnUse">
<stop stop-color="#3DA2FF"/>
<stop offset="1" stop-color="#C803C0"/>
</linearGradient>
<linearGradient id="paint5_linear_1470_867" x1="9" y1="0" x2="9" y2="18" gradientUnits="userSpaceOnUse">
<stop stop-color="#3DA2FF"/>
<stop offset="1" stop-color="#C803C0"/>
</linearGradient>
</defs>
</svg>
