<svg width="180" height="54" viewBox="0 0 180 54" fill="none" xmlns="http://www.w3.org/2000/svg">
<g clip-path="url(#clip0_803_609)">
<path d="M0 45L27.231 15.5L41.6172 30.5L69.8759 0" stroke="#3D3D3D" stroke-width="2" stroke-linecap="round"/>
<path d="M27.1092 23.1429L4.70319 47.7143L2.05518 52H70.9035V6L41.8575 38.2857L27.1092 23.1429Z" stroke="#252525" stroke-width="2" stroke-linecap="round"/>
<path d="M95.0563 41.296C93.3902 41.296 91.8776 41.04 90.5185 40.528C89.1593 40.016 87.9865 39.248 87 38.224L87.8221 37.456C89.5977 39.2907 92.0091 40.208 95.0563 40.208C96.0866 40.208 97.095 40.048 98.0815 39.728C99.0899 39.3867 99.912 38.8747 100.548 38.192C101.205 37.488 101.534 36.6027 101.534 35.536C101.534 34.64 101.348 33.8507 100.975 33.168C100.603 32.4853 99.89 31.8987 98.8378 31.408C97.8075 30.896 96.2839 30.4907 94.2671 30.192C89.8827 29.488 87.6905 27.4507 87.6905 24.08C87.6905 22.9067 87.9865 21.872 88.5784 20.976C89.1922 20.08 90.0252 19.3867 91.0775 18.896C92.1297 18.384 93.3464 18.128 94.7274 18.128C95.9989 18.128 97.1937 18.3307 98.3117 18.736C99.4516 19.12 100.592 19.728 101.731 20.56L101.041 21.456C100.011 20.7093 98.9912 20.1547 97.9828 19.792C96.9744 19.4293 95.8893 19.248 94.7274 19.248C93.0614 19.248 91.6694 19.664 90.5513 20.496C89.4333 21.328 88.8743 22.5227 88.8743 24.08C88.8743 25.5093 89.3237 26.6293 90.2225 27.44C91.1213 28.2293 92.5353 28.7733 94.4644 29.072C97.4019 29.5413 99.4954 30.2667 100.745 31.248C102.016 32.2293 102.652 33.6587 102.652 35.536C102.652 36.7307 102.301 37.7653 101.6 38.64C100.92 39.4933 99.9997 40.1547 98.8378 40.624C97.6979 41.072 96.4374 41.296 95.0563 41.296Z" fill="#252525"/>
<path d="M116.68 41.424C114.598 41.424 112.756 40.944 111.156 39.984C109.556 39.024 108.295 37.6693 107.374 35.92C106.476 34.1707 106.026 32.112 106.026 29.744C106.026 27.376 106.476 25.3173 107.374 23.568C108.295 21.7973 109.556 20.432 111.156 19.472C112.756 18.4907 114.598 18 116.68 18C118.566 18 120.254 18.4053 121.744 19.216C123.235 20.0053 124.452 21.1253 125.394 22.576L122.731 24.112C122.051 23.088 121.196 22.2987 120.166 21.744C119.136 21.1893 117.974 20.912 116.68 20.912C115.19 20.912 113.874 21.2747 112.734 22C111.616 22.7253 110.739 23.7493 110.104 25.072C109.468 26.3733 109.15 27.9307 109.15 29.744C109.15 31.536 109.468 33.0933 110.104 34.416C110.739 35.7173 111.616 36.7307 112.734 37.456C113.874 38.1813 115.19 38.544 116.68 38.544C117.974 38.544 119.136 38.2667 120.166 37.712C121.196 37.1573 122.051 36.368 122.731 35.344L125.394 36.88C124.452 38.3093 123.235 39.4293 121.744 40.24C120.254 41.0293 118.566 41.424 116.68 41.424Z" fill="#3D3D3D"/>
<path d="M137.525 41.328C134.741 41.328 132.614 40.5813 131.145 39.088C129.677 37.5733 128.942 35.3333 128.942 32.368V18.544H132V32.24C132 34.3093 132.472 35.8667 133.414 36.912C134.379 37.9573 135.749 38.48 137.525 38.48C139.3 38.48 140.659 37.9573 141.602 36.912C142.545 35.8667 143.016 34.3093 143.016 32.24V18.544H146.074V32.368C146.074 35.3333 145.34 37.5733 143.871 39.088C142.402 40.5813 140.287 41.328 137.525 41.328Z" fill="#3D3D3D"/>
<path d="M150.85 40.944V18.544H153.843L161.011 29.648L168.147 18.544H171.205V40.944H168.114V23.632L161.866 33.488H160.156L153.876 23.632V40.944H150.85Z" fill="#3D3D3D"/>
<path d="M185.928 40.944V18.544H187.046V40.944H185.928Z" fill="white"/>
<path d="M193.024 40.944V18.544H194.142L208.183 38.928V18.544H209.334V40.944H208.183L194.142 20.528V40.944H193.024Z" fill="white"/>
<path d="M221.887 40.944L213.107 18.544H214.324L222.347 39.056L230.337 18.544H231.554L222.774 40.944H221.887Z" fill="white"/>
<path d="M235.348 40.944V18.544H249.093V19.632H236.466V28.912H247.975V30.064H236.466V39.824H249.52V40.944H235.348Z" fill="white"/>
<path d="M261.365 41.296C259.699 41.296 258.186 41.04 256.827 40.528C255.468 40.016 254.295 39.248 253.308 38.224L254.13 37.456C255.906 39.2907 258.318 40.208 261.365 40.208C262.395 40.208 263.403 40.048 264.39 39.728C265.398 39.3867 266.22 38.8747 266.856 38.192C267.514 37.488 267.843 36.6027 267.843 35.536C267.843 34.64 267.656 33.8507 267.284 33.168C266.911 32.4853 266.198 31.8987 265.146 31.408C264.116 30.896 262.592 30.4907 260.575 30.192C256.191 29.488 253.999 27.4507 253.999 24.08C253.999 22.9067 254.295 21.872 254.887 20.976C255.501 20.08 256.334 19.3867 257.386 18.896C258.438 18.384 259.655 18.128 261.036 18.128C262.307 18.128 263.502 18.3307 264.62 18.736C265.76 19.12 266.9 19.728 268.04 20.56L267.349 21.456C266.319 20.7093 265.3 20.1547 264.291 19.792C263.283 19.4293 262.198 19.248 261.036 19.248C259.37 19.248 257.978 19.664 256.86 20.496C255.742 21.328 255.183 22.5227 255.183 24.08C255.183 25.5093 255.632 26.6293 256.531 27.44C257.43 28.2293 258.844 28.7733 260.773 29.072C263.71 29.5413 265.804 30.2667 267.053 31.248C268.325 32.2293 268.961 33.6587 268.961 35.536C268.961 36.7307 268.61 37.7653 267.908 38.64C267.229 39.4933 266.308 40.1547 265.146 40.624C264.006 41.072 262.746 41.296 261.365 41.296Z" fill="white"/>
<path d="M280.292 40.944V19.632H272.4V18.544H289.335V19.632H281.443V40.944H280.292Z" fill="white"/>
</g>
<defs>
<clipPath id="clip0_803_609">
<rect width="180" height="54" fill="white"/>
</clipPath>
</defs>
</svg>
