<svg width="93" height="28" viewBox="0 0 93 28" fill="none" xmlns="http://www.w3.org/2000/svg">
<g clip-path="url(#clip0_536_234)">
<path d="M0 23.3333L14.0694 8.03704L21.5022 15.8148L36.1025 0" stroke="#FDFDFD" stroke-width="2" stroke-linecap="round"/>
<path d="M14.0064 12L2.42997 24.7407L1.06183 26.963H36.6334V3.11111L21.6264 19.8519L14.0064 12Z" stroke="#636363" stroke-width="2" stroke-linecap="round"/>
<path d="M49.1124 21.4128C48.2516 21.4128 47.4701 21.28 46.7679 21.0145C46.0657 20.749 45.4597 20.3508 44.95 19.8199L45.3747 19.4216C46.2922 20.3729 47.5381 20.8486 49.1124 20.8486C49.6448 20.8486 50.1658 20.7656 50.6754 20.5997C51.1965 20.4227 51.6212 20.1572 51.9497 19.8033C52.2894 19.4382 52.4593 18.9792 52.4593 18.4261C52.4593 17.9615 52.3631 17.5522 52.1705 17.1982C51.978 16.8443 51.6099 16.5401 51.0662 16.2856C50.5339 16.0202 49.7467 15.81 48.7047 15.6551C46.4394 15.2901 45.3068 14.2337 45.3068 12.4859C45.3068 11.8775 45.4597 11.341 45.7655 10.8765C46.0826 10.4119 46.513 10.0524 47.0567 9.79794C47.6004 9.53245 48.229 9.39971 48.9425 9.39971C49.5995 9.39971 50.2167 9.5048 50.7944 9.71497C51.3833 9.91408 51.9723 10.2293 52.5613 10.6608L52.2045 11.1253C51.6722 10.7382 51.1455 10.4506 50.6245 10.2625C50.1035 10.0745 49.5428 9.98045 48.9425 9.98045C48.0817 9.98045 47.3625 10.1962 46.7849 10.6276C46.2072 11.059 45.9184 11.6784 45.9184 12.4859C45.9184 13.2271 46.1506 13.8078 46.615 14.2282C47.0794 14.6374 47.8099 14.9195 48.8066 15.0744C50.3243 15.3177 51.406 15.6938 52.0516 16.2027C52.7085 16.7115 53.037 17.4527 53.037 18.4261C53.037 19.0455 52.8558 19.582 52.4933 20.0356C52.1422 20.478 51.6665 20.8209 51.0662 21.0643C50.4772 21.2966 49.826 21.4128 49.1124 21.4128Z" fill="white"/>
<path d="M60.2848 21.4791C59.2088 21.4791 58.2574 21.2302 57.4306 20.7325C56.6038 20.2347 55.9525 19.5323 55.4768 18.6252C55.0124 17.7181 54.7803 16.6507 54.7803 15.4228C54.7803 14.195 55.0124 13.1275 55.4768 12.2205C55.9525 11.3023 56.6038 10.5944 57.4306 10.0966C58.2574 9.58776 59.2088 9.33334 60.2848 9.33334C61.2589 9.33334 62.131 9.54352 62.9012 9.96386C63.6714 10.3731 64.3 10.9539 64.787 11.7061L63.4109 12.5025C63.0598 11.9716 62.618 11.5623 62.0857 11.2747C61.5534 10.9871 60.9531 10.8433 60.2848 10.8433C59.5146 10.8433 58.8351 11.0313 58.2461 11.4074C57.6685 11.7835 57.2154 12.3145 56.8869 13.0003C56.5585 13.6751 56.3942 14.4826 56.3942 15.4228C56.3942 16.352 56.5585 17.1595 56.8869 17.8453C57.2154 18.5201 57.6685 19.0455 58.2461 19.4216C58.8351 19.7977 59.5146 19.9858 60.2848 19.9858C60.9531 19.9858 61.5534 19.842 62.0857 19.5544C62.618 19.2668 63.0598 18.8575 63.4109 18.3265L64.787 19.123C64.3 19.8641 63.6714 20.4448 62.9012 20.8652C62.131 21.2745 61.2589 21.4791 60.2848 21.4791Z" fill="white"/>
<path d="M71.0544 21.4293C69.616 21.4293 68.5173 21.0422 67.7584 20.2679C66.9996 19.4825 66.6202 18.321 66.6202 16.7834V9.61542H68.2002V16.717C68.2002 17.79 68.4437 18.5975 68.9307 19.1396C69.4291 19.6816 70.137 19.9526 71.0544 19.9526C71.9718 19.9526 72.6741 19.6816 73.1611 19.1396C73.6481 18.5975 73.8916 17.79 73.8916 16.717V9.61542H75.4716V16.7834C75.4716 18.321 75.0922 19.4825 74.3334 20.2679C73.5745 21.0422 72.4815 21.4293 71.0544 21.4293Z" fill="white"/>
<path d="M77.9394 21.2302V9.61542H79.4854L83.1891 15.373L86.8758 9.61542H88.4558V21.2302H86.8588V12.2536L83.6308 17.3642H82.7474L79.5024 12.2536V21.2302H77.9394Z" fill="white"/>
<path d="M96.0626 21.2302V9.61542H96.6402V21.2302H96.0626Z" fill="white"/>
<path d="M99.7292 21.2302V9.61542H100.307L107.561 20.1849V9.61542H108.156V21.2302H107.561L100.307 10.6442V21.2302H99.7292Z" fill="white"/>
<path d="M114.641 21.2302L110.105 9.61542H110.734L114.879 20.2513L119.008 9.61542H119.636L115.1 21.2302H114.641Z" fill="white"/>
<path d="M121.596 21.2302V9.61542H128.698V10.1796H122.174V14.9914H128.12V15.5888H122.174V20.6495H128.919V21.2302H121.596Z" fill="white"/>
<path d="M135.038 21.4128C134.178 21.4128 133.396 21.28 132.694 21.0145C131.992 20.749 131.386 20.3508 130.876 19.8199L131.301 19.4216C132.218 20.3729 133.464 20.8486 135.038 20.8486C135.571 20.8486 136.092 20.7656 136.601 20.5997C137.122 20.4227 137.547 20.1572 137.876 19.8033C138.215 19.4382 138.385 18.9792 138.385 18.4261C138.385 17.9615 138.289 17.5522 138.097 17.1982C137.904 16.8443 137.536 16.5401 136.992 16.2856C136.46 16.0202 135.673 15.81 134.631 15.6551C132.365 15.2901 131.233 14.2337 131.233 12.4859C131.233 11.8775 131.386 11.341 131.692 10.8765C132.009 10.4119 132.439 10.0524 132.983 9.79794C133.526 9.53245 134.155 9.39971 134.869 9.39971C135.525 9.39971 136.143 9.5048 136.72 9.71497C137.309 9.91408 137.898 10.2293 138.487 10.6608L138.131 11.1253C137.598 10.7382 137.072 10.4506 136.55 10.2625C136.029 10.0745 135.469 9.98045 134.869 9.98045C134.008 9.98045 133.289 10.1962 132.711 10.6276C132.133 11.059 131.844 11.6784 131.844 12.4859C131.844 13.2271 132.077 13.8078 132.541 14.2282C133.005 14.6374 133.736 14.9195 134.733 15.0744C136.25 15.3177 137.332 15.6938 137.978 16.2027C138.635 16.7115 138.963 17.4527 138.963 18.4261C138.963 19.0455 138.782 19.582 138.419 20.0356C138.068 20.478 137.593 20.8209 136.992 21.0643C136.403 21.2966 135.752 21.4128 135.038 21.4128Z" fill="white"/>
<path d="M144.818 21.2302V10.1796H140.74V9.61542H149.49V10.1796H145.412V21.2302H144.818Z" fill="white"/>
</g>
<defs>
<clipPath id="clip0_536_234">
<rect width="93" height="28" fill="white"/>
</clipPath>
</defs>
</svg>
