<svg width="22" height="22" viewBox="0 0 23 22" fill="none" xmlns="http://www.w3.org/2000/svg">
<path fill-rule="evenodd" clip-rule="evenodd" d="M22.498 19.58C22.498 20.9165 21.5952 22 20.4814 22L2.51472 22C1.40094 22 0.498051 20.9165 0.498051 19.58L0.498052 2.41999C0.498053 1.08345 1.40094 -5.65906e-06 2.51472 -5.5617e-06L2.60639 -5.55368e-06L9.11472 -4.98471e-06L20.4814 -3.991e-06C21.5952 -3.89363e-06 22.498 1.08345 22.498 2.42L22.498 19.58ZM9.11472 20.79L9.11472 1.20999L20.023 1.21C20.7318 1.21 21.3064 1.89948 21.3064 2.75L21.3064 19.25C21.3064 20.1005 20.7318 20.79 20.023 20.79L9.11472 20.79Z"/>
</svg>
